<svg xmlns="http://www.w3.org/2000/svg" width="160" height="160" fill="none" viewBox="0 0 160 160">
  <path fill="#000" d="m81.184 13.222 3.796 13.156 2.626-13.156h3.588l-4.29 18.2h-3.51l-3.978-14.014-3.978 14.014h-3.51l-4.29-18.2h3.588l2.626 13.156 3.796-13.156h3.536ZM110.078 19l-1.798 19.25-3.273-1.53.512-3.98-6.407-2.996-2.725 2.944-3.274-1.53 13.621-13.723L110.078 19Zm-3.06 2.185-5.859 6.33 4.734 2.214 1.125-8.544Zm29.419 99.286-18.742-4.749 2.018-2.998 3.853 1.12 3.949-5.867-2.489-3.148 2.018-2.998 11.455 15.577-2.062 3.063Zm-1.687-3.361-5.349-6.766-2.919 4.335 8.268 2.431Zm-23.012-75.774 10.098-11.34-3.845-3.423 2.006-2.253 10.407 9.268-2.005 2.252-3.845-3.423-10.098 11.34-2.718-2.421Zm11.774 12.624c-2.767-4.737-.981-8.64 3.037-10.987l2.246-1.311c4.018-2.347 8.295-1.984 11.062 2.753 2.32 3.974 1.056 7.994-2.063 10.026l-1.705-2.918c1.656-1.238 2.549-3.265 1.186-5.6-1.534-2.627-3.986-2.7-6.501-1.232l-2.559 1.495c-2.515 1.468-3.655 3.64-2.121 6.267 1.364 2.334 3.568 2.552 5.46 1.718l1.705 2.92c-3.303 1.717-7.426.843-9.747-3.13Zm5.019 11.067 18.017-2.579.516 3.604-7.387 1.057 1.057 7.387 7.387-1.058.516 3.604-18.017 2.579-.515-3.604 7.438-1.064-1.058-7.387-7.438 1.065-.516-3.604Zm-26.411 80.272-7.202 1.629c-4.767 1.079-7.944-1.295-8.856-5.327l-.86-3.803c-.913-4.033.932-7.542 5.7-8.621l7.202-1.629 4.016 17.751Zm-13.4-8.324.873 3.854c.585 2.587 2.414 3.719 5.28 3.071l3.068-.694-2.708-11.97-3.069.694c-2.865.649-4.029 2.458-3.443 5.045Zm-9.274-7.083-2.392 18.042-12.63-1.675.396-2.99 9.022 1.196.584-4.407-8.248-1.094.4-3.015 8.248 1.093.615-4.639-9.047-1.2.397-2.989 12.655 1.678Zm-42.113 2.82 9.64-15.438 2.955 1.845-5.921 9.483 6.469-3.93 2.735 1.708-.692 7.538 5.922-9.483 2.955 1.845-9.64 15.438-2.845-1.777 1.142-11.548-9.875 6.095-2.845-1.776Zm-10.796-23.816 2.14-1.566c3.735-2.733 8.195-2.582 11.358 1.741 3.147 4.301 1.957 8.619-1.778 11.352l-2.14 1.566c-3.735 2.733-8.21 2.56-11.358-1.741-3.163-4.323-1.957-8.62 1.778-11.352Zm11.064 1.956c-1.797-2.455-4.299-2.396-6.628-.692l-2.434 1.781c-2.33 1.704-3.142 4.071-1.346 6.526 1.796 2.455 4.298 2.396 6.627.692l2.434-1.781c2.33-1.704 3.143-4.071 1.347-6.526Z"/>
</svg>
